{"title":"Dangerous.Minds.1995.x264.AC3(5.1).Multisub.mkv-Zen_Bud","uid":6799621,"size":2087636160,"categoryP":"video","categoryS":"movies","magnet":"?xt=urn:btih:5ea7ce089612ff389f5344d41762e188ca3880f6&amp;dn=Dangerous.Minds.1995.x264.AC3%285.1%29.Multisub.mkv-Zen_Bud&amp;tr=udp%3A%2F%2Ftracker.openbittorrent.com%3A80&amp;tr=udp%3A%2F%2Fopen.demonii.com%3A1337&amp;tr=udp%3A%2F%2Ftracker.coppersurfer.tk%3A6969&amp;tr=udp%3A%2F%2Fexodus.desync.com%3A6969","seeders":2,"leechers":0,"uploader":"Zen_Bud","files":-1,"time":1320656447,"description":"\n     Dangerous.Minds.1995.x264.AC3(5.1).Multisub.mkv-Zen_Bud\n\nFormat                           : Matroska\nFormat version                   : Version 2\nFile size                        : 1.94 GiB\nDuration                         : 1h 34mn\nOverall bit rate                 : 2 937 Kbps\nWriting application              : HandBrake 0.9.5\nWriting library                  : libmkv 0.6.4.1\n\nVideo\nID                               : 1\nFormat                           : AVC\nFormat/Info                      : Advanced Video Codec\nFormat profile                   : &lt;a class=&quot;__cf_email__&quot; href=&quot;/cdn-cgi/l/email-protection&quot; data-cfemail=&quot;81c9e8e6e9c1cdb2afb1&quot;&gt;[email&amp;#160;protected]&lt;/a&gt;&lt;script cf-hash='f9e31' type=&quot;text/javascript&quot;&gt;\n/* &lt;![CDATA[ */!function(){try{var t=&quot;currentScript&quot;in document?document.currentScript:function(){for(var t=document.getElementsByTagName(&quot;script&quot;),e=t.length;e--;)if(t[e].getAttribute(&quot;cf-hash&quot;))return t[e]}();if(t&amp;&amp;t.previousSibling){var e,r,n,i,c=t.previousSibling,a=c.getAttribute(&quot;data-cfemail&quot;);if(a){for(e=&quot;&quot;,r=parseInt(a.substr(0,2),16),n=2;a.length-n;n+=2)i=parseInt(a.substr(n,2),16)^r,e+=String.fromCharCode(i);e=document.createTextNode(e),c.parentNode.replaceChild(e,c)}}}catch(u){}}();/* ]]&gt; */&lt;/script&gt;\nFormat settings, CABAC           : Yes\nFormat settings, ReFrames        : 4 frames\nCodec ID                         : V_MPEG4/ISO/AVC\nDuration                         : 1h 34mn\nBit rate                         : 2 500 Kbps\nWidth                            : 720 pixels\nHeight                           : 544 pixels\nDisplay aspect ratio             : 1.857\nFrame rate mode                  : Variable\nFrame rate                       : 25.000 fps\nColor space                      : YUV\nChroma subsampling               : 4:2:0\nBit depth                        : 8 bits\nScan type                        : Progressive\nBits/(Pixel*Frame)               : 0.255\nStream size                      : 1.65 GiB (85%)\nWriting library                  : x264 core 112\nEncoding settings                : cabac=1 / ref=4 / deblock=1:0:0 / analyse=0x3:0x113 \n\nAudio\nID                               : 2\nFormat                           : AC-3\nFormat/Info                      : Audio Coding 3\nMode extension                   : CM (complete main)\nCodec ID                         : A_AC3\nDuration                         : 1h 34mn\nBit rate mode                    : Constant\nBit rate                         : 384 Kbps\nChannel(s)                       : 6 channels\nChannel positions                : Front: L C R, Side: L R, LFE\nSampling rate                    : 48.0 KHz\nBit depth                        : 16 bits\nCompression mode                 : Lossy\nStream size                      : 260 MiB (13%)\nLanguage                         : English\n\nText #1\nID                               : 3\nFormat                           : VobSub\nCodec ID                         : S_VOBSUB\nCodec ID/Info                    : The same subtitle format used on DVDs\nLanguage                         : English\n\nText #2\nID                               : 4\nFormat                           : VobSub\nCodec ID                         : S_VOBSUB\nCodec ID/Info                    : The same subtitle format used on DVDs\nLanguage                         : Swedish\n\nText #3\nID                               : 5\nFormat                           : VobSub\nCodec ID                         : S_VOBSUB\nCodec ID/Info                    : The same subtitle format used on DVDs\nLanguage                         : Norwegian\n\nText #4\nID                               : 6\nFormat                           : VobSub\nCodec ID                         : S_VOBSUB\nCodec ID/Info                    : The same subtitle format used on DVDs\nLanguage                         : Danish\n\nText #5\nID                               : 7\nFormat                           : VobSub\nCodec ID                         : S_VOBSUB\nCodec ID/Info                    : The same subtitle format used on DVDs\nLanguage                         : Finnish\n\nText #6\nID                               : 8\nFormat                           : VobSub\nCodec ID                         : S_VOBSUB\nCodec ID/Info                    : The same subtitle format used on DVDs\nLanguage                         : Portuguese\n\nText #7\nID                               : 9\nFormat                           : VobSub\nCodec ID                         : S_VOBSUB\nCodec ID/Info                    : The same subtitle format used on DVDs\nLanguage                         : Greek\n\nText #8\nID                               : 10\nFormat                           : VobSub\nCodec ID                         : S_VOBSUB\nCodec ID/Info                    : The same subtitle format used on DVDs\nLanguage                         : Icelandic\n\nText #9\nID                               : 11\nFormat                           : VobSub\nCodec ID                         : S_VOBSUB\nCodec ID/Info                    : The same subtitle format used on DVDs\nLanguage                         : Croatian\n\nText #10\nID                               : 12\nFormat                           : VobSub\nCodec ID                         : S_VOBSUB\nCodec ID/Info                    : The same subtitle format used on DVDs\nLanguage                         : Polish\n\nText #11\nID                               : 13\nFormat                           : VobSub\nCodec ID                         : S_VOBSUB\nCodec ID/Info                    : The same subtitle format used on DVDs\nLanguage                         : Hungarian\n\nMenu\n00:00:00.000                     : Chapter 1\n00:07:15.400                     : Chapter 2\n00:13:05.560                     : Chapter 3\n00:30:00.960                     : Chapter 4\n00:39:27.280                     : Chapter 5\n00:44:49.120                     : Chapter 6\n00:49:46.840                     : Chapter 7\n00:51:35.400                     : Chapter 8\n00:57:12.000                     : Chapter 9\n01:09:28.600                     : Chapter 10\n01:17:56.480                     : Chapter 11\n01:21:30.760                     : Chapter 12\n01:26:40.480                     : Chapter 13\n01:30:34.920                     : Chapter 14\n01:34:45.200                     : Chapter 15\n\n","torrent":{"xt":"urn:btih:5ea7ce089612ff389f5344d41762e188ca3880f6","amp;dn":"Dangerous.Minds.1995.x264.AC3%285.1%29.Multisub.mkv-Zen_Bud","amp;tr":["udp%3A%2F%2Ftracker.openbittorrent.com%3A80","udp%3A%2F%2Fopen.demonii.com%3A1337","udp%3A%2F%2Ftracker.coppersurfer.tk%3A6969","udp%3A%2F%2Fexodus.desync.com%3A6969"],"infoHash":"5ea7ce089612ff389f5344d41762e188ca3880f6","infoHashBuffer":{"type":"Buffer","data":[94,167,206,8,150,18,255,56,159,83,68,212,23,98,225,136,202,56,128,246]},"announce":[],"urlList":[]}}